<svg xmlns="http://www.w3.org/2000/svg" width="800" height="800" fill="none" viewBox="0 0 48 48"><path fill="#2f88ff" stroke="#000" stroke-linecap="round" stroke-linejoin="round" stroke-width="4" d="M10 18c0-7.732 6.268-14 14-14s14 6.268 14 14v12c0 7.732-6.268 14-14 14s-14-6.268-14-14z"/><path stroke="#fff" stroke-linecap="round" stroke-linejoin="round" stroke-width="4" d="M10 17h28m-16-6h4M10 26s5.4-.6 7 1 1 3.369 1 3.369c3 0 6 .158 6 3.631 0 2.5-4 4-6.5 2.369C17.5 38.5 17 40 14 40m24-17s-3.5-2-5-1-1 3-1 3c-1.5-1-4 0-4 2.5s2.5 3.5 5 2.5c1 3 3.5 3 5 2"/><path stroke="#000" stroke-linecap="round" stroke-linejoin="round" stroke-width="4" d="M25 44c7.18 0 13-5.82 13-13V18c0-7.732-6.268-14-14-14v0m-1 40c-7.18 0-13-5.82-13-13V18c0-7.732 6.268-14 14-14v0"/></svg>