<?xml version="1.0" encoding="UTF-8" standalone="no"?>
<svg
   id="svg1"
   width="669.721"
   height="668.317"
   viewBox="0 0 669.721 668.318"
   version="1.1"
   sodipodi:docname="arrow.svg"
   inkscape:version="1.4.2 (f4327f4, 2025-05-13)"
   xmlns:inkscape="http://www.inkscape.org/namespaces/inkscape"
   xmlns:sodipodi="http://sodipodi.sourceforge.net/DTD/sodipodi-0.dtd"
   xmlns="http://www.w3.org/2000/svg"
   xmlns:svg="http://www.w3.org/2000/svg">
  <defs
     id="defs1" />
  <sodipodi:namedview
     id="namedview1"
     pagecolor="#505050"
     bordercolor="#ffffff"
     borderopacity="1"
     inkscape:showpageshadow="0"
     inkscape:pageopacity="0"
     inkscape:pagecheckerboard="1"
     inkscape:deskcolor="#505050"
     inkscape:zoom="1.2075108"
     inkscape:cx="334.57258"
     inkscape:cy="334.15851"
     inkscape:window-width="1920"
     inkscape:window-height="1009"
     inkscape:window-x="-8"
     inkscape:window-y="-8"
     inkscape:window-maximized="1"
     inkscape:current-layer="svg1" />
  <path
     id="path3"
     d="m332.67.333-333 668 333-96 337 96z"
     style="fill:#fff;fill-opacity:1" />
  <path
     id="path2"
     d="m332.67 10.333-323 650 323-95 327 95z"
     style="fill:#222;fill-opacity:1" />
  <g
     id="Capa_1-2"
     data-name="Capa 1"
     transform="translate(179.67 300.333)"
     style="fill:#ff3300;fill-opacity:1">
    <circle
       id="circle1"
       cx="170.76"
       cy="124.84"
       r="23.69"
       style="fill:#ff3300;fill-opacity:1" />
    <path
       id="path1"
       d="M137.32 31.9H279V0H139.88a159.1 159.1 0 0 0-54.13 9.23C51 21.76 1.36 50.39 0 125c-.94 52.2 29.72 83 60.61 100.67C87.45 241 118.26 248 149.18 248H279v-31.9H139.76c-21.09 0-42.19-4.51-60.58-14.85-22-12.36-44.39-34.59-46.27-74S51.85 63.92 73.14 50c18.94-12.46 41.53-18.1 64.18-18.1"
       style="fill:#ff3300;fill-opacity:1" />
  </g>
</svg>
