<svg xmlns="http://www.w3.org/2000/svg" id="svg1" width="670" height="670" viewBox="0 0 670 670"><path id="bg" d="M335 0 0 670l335-96 335 96z" style="fill:#fff;fill-opacity:1"/><path id="bg2" d="M335 10 10 662l325-95 325 95z" style="fill:#222;fill-opacity:1"/><g id="Robiotec" data-name="E" style="fill:#e73b1d;fill-opacity:1" transform="translate(175 290)"><circle id="circle1" cx="170.76" cy="124.84" r="23.69"/><path id="path1" d="M137.32 31.9H279V0H139.88a159.1 159.1 0 0 0-54.13 9.23C51 21.76 1.36 50.39 0 125c-.94 52.2 29.72 83 60.61 100.67C87.45 241 118.26 248 149.18 248H279v-31.9H139.76c-21.09 0-42.19-4.51-60.58-14.85-22-12.36-44.39-34.59-46.27-74S51.85 63.92 73.14 50c18.94-12.46 41.53-18.1 64.18-18.1"/></g></svg>